<svg width="46" height="46" viewBox="0 0 46 46" fill="none" xmlns="http://www.w3.org/2000/svg">
<rect x="0.5" y="0.5" width="45" height="45" rx="7.5" stroke="#363661"/>
<path d="M21 25V27C19.4087 27 17.8826 27.6321 16.7574 28.7574C15.6321 29.8826 15 31.4087 15 33H13C13 30.8783 13.8429 28.8434 15.3431 27.3431C16.8434 25.8429 18.8783 25 21 25ZM21 24C17.685 24 15 21.315 15 18C15 14.685 17.685 12 21 12C24.315 12 27 14.685 27 18C27 21.315 24.315 24 21 24ZM21 22C23.21 22 25 20.21 25 18C25 15.79 23.21 14 21 14C18.79 14 17 15.79 17 18C17 20.21 18.79 22 21 22ZM27 32.5L24.061 34.045L24.622 30.773L22.245 28.455L25.531 27.977L27 25L28.47 27.977L31.755 28.455L29.378 30.773L29.938 34.045L27 32.5Z" fill="#6A6A9F"/>
</svg>
