<svg width="46" height="298" viewBox="0 0 46 298" fill="none" xmlns="http://www.w3.org/2000/svg">
<rect width="46" height="92" rx="8" fill="#191932"/>
<path d="M22 21V15H24V21H30V23H24V29H22V23H16V21H22Z" fill="#5A5A89"/>
<path d="M22 70H24H30V72H24H22H16V70H22Z" fill="#5A5A89"/>
<rect y="106" width="46" height="46" rx="8" fill="#191932"/>
<path d="M23 137C25.1217 137 27.1566 136.157 28.6569 134.657C30.1571 133.157 31 131.122 31 129C31 126.878 30.1571 124.843 28.6569 123.343C27.1566 121.843 25.1217 121 23 121C20.8783 121 18.8434 121.843 17.3431 123.343C15.8429 124.843 15 126.878 15 129C15 131.122 15.8429 133.157 17.3431 134.657C18.8434 136.157 20.8783 137 23 137ZM23 139C17.477 139 13 134.523 13 129C13 123.477 17.477 119 23 119C28.523 119 33 123.477 33 129C33 134.523 28.523 139 23 139ZM23 131C22.4696 131 21.9609 130.789 21.5858 130.414C21.2107 130.039 21 129.53 21 129C21 128.47 21.2107 127.961 21.5858 127.586C21.9609 127.211 22.4696 127 23 127C23.5304 127 24.0391 127.211 24.4142 127.586C24.7893 127.961 25 128.47 25 129C25 129.53 24.7893 130.039 24.4142 130.414C24.0391 130.789 23.5304 131 23 131Z" fill="#5A5A89"/>
<rect y="166" width="46" height="132" rx="8" fill="#191932"/>
<path d="M18.1049 194.21C18.7586 194.469 19.3005 194.95 19.6361 195.568C19.9717 196.185 20.0798 196.902 19.9413 197.591C19.8028 198.28 19.4267 198.899 18.8786 199.34C18.3304 199.78 17.645 200.014 16.942 200C16.239 199.987 15.563 199.727 15.032 199.266C14.501 198.806 14.1486 198.173 14.0365 197.479C13.9243 196.785 14.0595 196.073 14.4183 195.468C14.7771 194.864 15.3369 194.404 15.9999 194.17V187.83C15.3325 187.594 14.7699 187.13 14.4116 186.519C14.0533 185.909 13.9225 185.191 14.0421 184.493C14.1618 183.796 14.5243 183.163 15.0656 182.706C15.6068 182.25 16.292 182 16.9999 182C17.7079 182 18.3931 182.25 18.9343 182.706C19.4756 183.163 19.8381 183.796 19.9578 184.493C20.0774 185.191 19.9466 185.909 19.5883 186.519C19.23 187.13 18.6674 187.594 17.9999 187.83V191C18.8359 190.372 19.8739 190 20.9999 190H24.9999C25.6581 190 26.2979 189.784 26.821 189.385C27.3441 188.985 27.7215 188.425 27.8949 187.79C27.2381 187.53 26.6941 187.047 26.3587 186.425C26.0233 185.803 25.9179 185.083 26.0612 184.391C26.2045 183.7 26.5873 183.08 27.1421 182.643C27.6969 182.206 28.3882 181.978 29.0943 182.001C29.8004 182.023 30.476 182.293 31.0022 182.765C31.5284 183.236 31.8714 183.878 31.9709 184.577C32.0704 185.277 31.92 185.989 31.5461 186.588C31.1722 187.188 30.5988 187.636 29.9269 187.854C29.7255 189.015 29.1209 190.067 28.2195 190.826C27.3182 191.584 26.178 192 24.9999 192H20.9999C20.3418 192 19.702 192.217 19.1789 192.616C18.6557 193.015 18.2784 193.575 18.1049 194.21ZM16.9999 196C16.7347 196 16.4804 196.106 16.2928 196.293C16.1053 196.481 15.9999 196.735 15.9999 197C15.9999 197.265 16.1053 197.52 16.2928 197.707C16.4804 197.895 16.7347 198 16.9999 198C17.2652 198 17.5195 197.895 17.7071 197.707C17.8946 197.52 17.9999 197.265 17.9999 197C17.9999 196.735 17.8946 196.481 17.7071 196.293C17.5195 196.106 17.2652 196 16.9999 196ZM16.9999 184C16.7347 184 16.4804 184.106 16.2928 184.293C16.1053 184.481 15.9999 184.735 15.9999 185C15.9999 185.265 16.1053 185.52 16.2928 185.707C16.4804 185.895 16.7347 186 16.9999 186C17.2652 186 17.5195 185.895 17.7071 185.707C17.8946 185.52 17.9999 185.265 17.9999 185C17.9999 184.735 17.8946 184.481 17.7071 184.293C17.5195 184.106 17.2652 184 16.9999 184ZM28.9999 184C28.7347 184 28.4804 184.106 28.2928 184.293C28.1053 184.481 27.9999 184.735 27.9999 185C27.9999 185.265 28.1053 185.52 28.2928 185.707C28.4804 185.895 28.7347 186 28.9999 186C29.2652 186 29.5195 185.895 29.7071 185.707C29.8946 185.52 29.9999 185.265 29.9999 185C29.9999 184.735 29.8946 184.481 29.7071 184.293C29.5195 184.106 29.2652 184 28.9999 184Z" fill="#5A5A89"/>
<path d="M26.874 233C26.6516 233.858 26.1504 234.618 25.4493 235.161C24.7481 235.703 23.8866 235.998 23 235.998C22.1134 235.998 21.2519 235.703 20.5507 235.161C19.8496 234.618 19.3484 233.858 19.126 233H14V231H19.126C19.3484 230.142 19.8496 229.382 20.5507 228.839C21.2519 228.296 22.1134 228.002 23 228.002C23.8866 228.002 24.7481 228.296 25.4493 228.839C26.1504 229.382 26.6516 230.142 26.874 231H32V233H26.874ZM23 234C23.5304 234 24.0391 233.789 24.4142 233.414C24.7893 233.039 25 232.53 25 232C25 231.469 24.7893 230.961 24.4142 230.586C24.0391 230.211 23.5304 230 23 230C22.4696 230 21.9609 230.211 21.5858 230.586C21.2107 230.961 21 231.469 21 232C21 232.53 21.2107 233.039 21.5858 233.414C21.9609 233.789 22.4696 234 23 234Z" fill="#5A5A89"/>
<path d="M26 266H28C28.5305 266 29.0392 266.211 29.4142 266.586C29.7893 266.961 30 267.47 30 268V276.17C30.6675 276.406 31.2301 276.87 31.5884 277.481C31.9467 278.091 32.0775 278.809 31.9578 279.507C31.8382 280.205 31.4757 280.838 30.9344 281.294C30.3931 281.75 29.708 282 29 282C28.2921 282 27.6069 281.75 27.0657 281.294C26.5244 280.838 26.1619 280.205 26.0422 279.507C25.9225 278.809 26.0534 278.091 26.4117 277.481C26.7699 276.87 27.3325 276.406 28 276.17V268H26V271L21.5 267L26 263V266ZM16 269.83C15.3325 269.594 14.7699 269.13 14.4117 268.519C14.0534 267.909 13.9225 267.191 14.0422 266.493C14.1619 265.795 14.5244 265.162 15.0657 264.706C15.6069 264.25 16.2921 264 17 264C17.708 264 18.3931 264.25 18.9344 264.706C19.4757 265.162 19.8382 265.795 19.9578 266.493C20.0775 267.191 19.9467 267.909 19.5884 268.519C19.2301 269.13 18.6675 269.594 18 269.83V276.17C18.6675 276.406 19.2301 276.87 19.5884 277.481C19.9467 278.091 20.0775 278.809 19.9578 279.507C19.8382 280.205 19.4757 280.838 18.9344 281.294C18.3931 281.75 17.708 282 17 282C16.2921 282 15.6069 281.75 15.0657 281.294C14.5244 280.838 14.1619 280.205 14.0422 279.507C13.9225 278.809 14.0534 278.091 14.4117 277.481C14.7699 276.87 15.3325 276.406 16 276.17V269.83ZM17 268C17.2652 268 17.5196 267.895 17.7071 267.707C17.8947 267.52 18 267.265 18 267C18 266.735 17.8947 266.48 17.7071 266.293C17.5196 266.105 17.2652 266 17 266C16.7348 266 16.4805 266.105 16.2929 266.293C16.1054 266.48 16 266.735 16 267C16 267.265 16.1054 267.52 16.2929 267.707C16.4805 267.895 16.7348 268 17 268ZM17 280C17.2652 280 17.5196 279.895 17.7071 279.707C17.8947 279.52 18 279.265 18 279C18 278.735 17.8947 278.48 17.7071 278.293C17.5196 278.105 17.2652 278 17 278C16.7348 278 16.4805 278.105 16.2929 278.293C16.1054 278.48 16 278.735 16 279C16 279.265 16.1054 279.52 16.2929 279.707C16.4805 279.895 16.7348 280 17 280ZM29 280C29.2652 280 29.5196 279.895 29.7071 279.707C29.8947 279.52 30 279.265 30 279C30 278.735 29.8947 278.48 29.7071 278.293C29.5196 278.105 29.2652 278 29 278C28.7348 278 28.4805 278.105 28.2929 278.293C28.1054 278.48 28 278.735 28 279C28 279.265 28.1054 279.52 28.2929 279.707C28.4805 279.895 28.7348 280 29 280Z" fill="#5A5A89"/>
</svg>
