<svg width="147" height="146" viewBox="0 0 147 146" fill="none" xmlns="http://www.w3.org/2000/svg">
<path d="M73.6866 5.71266C82.499 5.71266 91.2251 7.44839 99.3666 10.8207C107.508 14.1931 114.906 19.136 121.137 25.3673C127.368 31.5986 132.311 38.9962 135.684 47.1378C139.056 55.2793 140.792 64.0054 140.792 72.8178C140.792 81.6302 139.056 90.3563 135.684 98.4978C132.311 106.639 127.368 114.037 121.137 120.268C114.906 126.5 107.508 131.443 99.3666 134.815C91.2251 138.187 82.499 139.923 73.6866 139.923C64.8742 139.923 56.1482 138.187 48.0066 134.815C39.865 131.443 32.4674 126.5 26.2361 120.268C20.0048 114.037 15.0619 106.639 11.6895 98.4978C8.3172 90.3563 6.58147 81.6302 6.58147 72.8178C6.58147 64.0054 8.3172 55.2793 11.6895 47.1378C15.0619 38.9962 20.0048 31.5986 26.2361 25.3673C32.4674 19.136 39.865 14.1931 48.0066 10.8207C56.1482 7.44838 64.8743 5.71266 73.6866 5.71266L73.6866 5.71266Z" stroke="#05050F" stroke-width="4.89873"/>
<path d="M74 23.4494C80.4414 23.4494 86.8198 24.7181 92.7709 27.1831C98.722 29.6482 104.129 33.2612 108.684 37.816C113.239 42.3707 116.852 47.778 119.317 53.7291C121.782 59.6802 123.051 66.0586 123.051 72.5C123.051 78.9414 121.782 85.3198 119.317 91.2709C116.852 97.222 113.239 102.629 108.684 107.184C104.129 111.739 98.722 115.352 92.7709 117.817C86.8198 120.282 80.4414 121.551 74 121.551C67.5586 121.551 61.1802 120.282 55.2291 117.817C49.278 115.352 43.8707 111.739 39.316 107.184C34.7612 102.629 31.1481 97.222 28.6831 91.2709C26.2181 85.3198 24.9494 78.9414 24.9494 72.5C24.9494 66.0586 26.2181 59.6802 28.6831 53.7291C31.1481 47.778 34.7612 42.3707 39.316 37.816C43.8707 33.2612 49.278 29.6481 55.2291 27.1831C61.1802 24.7181 67.5586 23.4494 74 23.4494L74 23.4494Z" stroke="#05050F" stroke-width="4.89873"/>
<path d="M73.5 24C84.8364 24 95.8221 27.9307 104.585 35.1225C113.348 42.3142 119.347 52.322 121.558 63.4406C123.77 74.5592 122.058 86.1006 116.714 96.0984C111.37 106.096 102.725 113.932 92.2515 118.27C81.778 122.608 70.1243 123.181 59.2761 119.89C48.4278 116.599 39.0562 109.649 32.758 100.223C26.4598 90.7971 23.6248 79.479 24.7359 68.1972C25.8471 56.9153 30.8357 46.3678 38.8518 38.3518" stroke="url(#paint0_linear_1771_4887)" stroke-width="10" stroke-linecap="round"/>
<path d="M73.5 5.00001C84.865 5.00001 96.0488 7.84852 106.029 13.2852C116.009 18.7218 124.468 26.5732 130.631 36.1217C136.795 45.6702 140.467 56.6112 141.312 67.9448C142.157 79.2783 140.148 90.6429 135.468 101C130.788 111.357 123.587 120.375 114.523 127.232C105.46 134.088 94.8218 138.563 83.5824 140.248C72.3431 141.933 60.8606 140.775 50.1845 136.878C39.5085 132.981 29.9793 126.471 22.4681 117.942" stroke="url(#paint1_linear_1771_4887)" stroke-width="10" stroke-linecap="round"/>
<path d="M10.1028 97.5926C6.87325 89.2671 5.31515 80.3871 5.51745 71.4595C5.71975 62.5319 7.6785 53.7316 11.2818 45.561C14.8852 37.3904 20.0626 30.0095 26.5184 23.8398C32.9742 17.6701 40.582 12.8323 48.9075 9.6028" stroke="url(#paint2_linear_1771_4887)" stroke-width="10" stroke-linecap="round"/>
<path d="M73.5 5.00001C87.1504 5.00001 100.485 9.10831 111.769 16.7904" stroke="url(#paint3_linear_1771_4887)" stroke-width="10" stroke-linecap="round"/>
<circle cx="74" cy="72.5" r="29.5" fill="#05050F"/>
<path d="M74.5 82.8334C68.5168 82.8334 63.6667 77.9833 63.6667 72.0001C63.6667 66.0168 68.5168 61.1667 74.5 61.1667C80.4833 61.1667 85.3333 66.0168 85.3333 72.0001C85.3333 77.9833 80.4833 82.8334 74.5 82.8334ZM74.5 80.6667C76.7985 80.6667 79.0029 79.7537 80.6283 78.1283C82.2536 76.503 83.1667 74.2986 83.1667 72.0001C83.1667 69.7015 82.2536 67.4971 80.6283 65.8718C79.0029 64.2465 76.7985 63.3334 74.5 63.3334C72.2015 63.3334 69.9971 64.2465 68.3717 65.8718C66.7464 67.4971 65.8333 69.7015 65.8333 72.0001C65.8333 74.2986 66.7464 76.503 68.3717 78.1283C69.9971 79.7537 72.2015 80.6667 74.5 80.6667ZM71.25 67.6667H77.75L80.4583 71.4584L74.5 77.4167L68.5417 71.4584L71.25 67.6667ZM72.3658 69.8334L71.3692 71.2309L74.5 74.3617L77.6308 71.2309L76.6342 69.8334H72.3658Z" fill="#6A6A9F"/>
<defs>
<linearGradient id="paint0_linear_1771_4887" x1="46.4997" y1="19" x2="46.5897" y2="124.308" gradientUnits="userSpaceOnUse">
<stop stop-color="#E323FF"/>
<stop offset="1" stop-color="#7517F8"/>
</linearGradient>
<linearGradient id="paint1_linear_1771_4887" x1="0.500002" y1="8.70228e-06" x2="0.5" y2="140.677" gradientUnits="userSpaceOnUse">
<stop stop-color="#4DFFDF"/>
<stop offset="1" stop-color="#4DA1FF"/>
</linearGradient>
<linearGradient id="paint2_linear_1771_4887" x1="36.9997" y1="5.07257e-06" x2="37.1213" y2="142.36" gradientUnits="userSpaceOnUse">
<stop stop-color="#FFD422"/>
<stop offset="1" stop-color="#FF7D05"/>
</linearGradient>
<linearGradient id="paint3_linear_1771_4887" x1="0.500002" y1="8.70228e-06" x2="0.5" y2="140.677" gradientUnits="userSpaceOnUse">
<stop stop-color="#4DFFDF"/>
<stop offset="1" stop-color="#4DA1FF"/>
</linearGradient>
</defs>
</svg>
