<svg width="46" height="46" viewBox="0 0 46 46" fill="none" xmlns="http://www.w3.org/2000/svg">
<rect x="0.5" y="0.5" width="45" height="45" rx="7.5" stroke="#363661"/>
<path d="M23 33C17.477 33 13 28.523 13 23C13 17.477 17.477 13 23 13C28.523 13 33 17.477 33 23C33 28.523 28.523 33 23 33ZM23 31C25.1217 31 27.1566 30.1571 28.6569 28.6569C30.1571 27.1566 31 25.1217 31 23C31 20.8783 30.1571 18.8434 28.6569 17.3431C27.1566 15.8429 25.1217 15 23 15C20.8783 15 18.8434 15.8429 17.3431 17.3431C15.8429 18.8434 15 20.8783 15 23C15 25.1217 15.8429 27.1566 17.3431 28.6569C18.8434 30.1571 20.8783 31 23 31ZM23 18.05L27.95 23L23 27.95L18.05 23L23 18.05ZM23 20.879L20.879 23L23 25.121L25.121 23L23 20.879Z" fill="#6A6A9F"/>
</svg>
